# xmcd
#
# Track frame offsets:
#	182
#	13412
#	25565
#	37397
#	54940
#	68312
#	82697
#	98925
#	115165
#	134627
#	147440
#	159850
#
# Disc length: 2323 seconds
#
# Revision: 1
# Processed by: cddbd v1.5.1PL0 Copyright (c) Steve Scherf et al.
# Submitted via: EasyCDDAExtractor 6.0.0.1
#
DISCID=9609110c
DTITLE=R.D. Countryband - A Bunch Of Country Bastards
DYEAR=1990
DGENRE=Country
TTITLE0=We're a Bunch Of Coyntry Bastards
TTITLE1=You Can Bet Your Heart On Me
TTITLE2=The Rest Of You Life
TTITLE3=Another Shot Of Wiskey
TTITLE4=Midnight Bandit
TTITLE5=Dear Dolly Parton
TTITLE6=T. Bird Fifty Four
TTITLE7=I'm Countin' My Pillows
TTITLE8=Tonight You Can Have Me
TTITLE9=It's The Singer, Not The Songs
TTITLE10=There'll Always Be A Jukebox
TTITLE11=Mem'ries Of You
EXTD=
EXTT0=
EXTT1=
EXTT2=
EXTT3=
EXTT4=
EXTT5=
EXTT6=
EXTT7=
EXTT8=
EXTT9=
EXTT10=
EXTT11=
PLAYORDER=
